HIERARCHY
ROOT Hips
{
	OFFSET 0.00000 0.00000 0.00000
	CHANNELS 6 Xposition Yposition Zposition Yrotation Zrotation Xrotation 
	JOINT Lumbar
	{
		OFFSET 0 0 0
		CHANNELS 3 Zrotation Xrotation Yrotation
		JOINT Neck
		{
			OFFSET 0.00 0.2701 0.00
			CHANNELS 3 Zrotation Xrotation Yrotation
			End Site
			{
				OFFSET 0.00 0.1379 0.00
			}
		}
		JOINT RightShoulder
		{
			OFFSET 0.0119 0.2289 0.1181
			CHANNELS 3 Zrotation Xrotation Yrotation
			JOINT RightElbow
			{
				OFFSET 0.00 -0.1475 0.00
				CHANNELS 2 Zrotation Yrotation
				JOINT RightWrist
				{
					OFFSET 0.00 -0.1605 0.00
					CHANNELS 2 Zrotation Xrotation
					End Site
					{
						OFFSET 0.0040 -0.1068 0.0006
					}
				}
			}
		}
		JOINT LeftShoulder
		{
			OFFSET 0.0119 0.2289 -0.1181
			CHANNELS 3 Zrotation Xrotation Yrotation
			JOINT LeftElbow
			{
				OFFSET 0.00 -0.1475 0.00
				CHANNELS 2 Zrotation Yrotation
				JOINT LeftWrist
				{
					OFFSET 0.00 -0.1605 0.00
					CHANNELS 2 Zrotation Xrotation
					End Site
					{
						OFFSET 0.0040 -0.1068 -0.0006
					}
				}
			}
		}
	}
	JOINT RightHip
	{
		OFFSET 0.0316 -0.0424 0.0458
		CHANNELS 3 Zrotation Xrotation Yrotation
		JOINT RightKnee
		{
			OFFSET 0.00 -0.2438 0.00
			CHANNELS 1 Zrotation
			JOINT RightAnkle
			{
				OFFSET 0.00 -0.2449 0.00
				CHANNELS 3 Zrotation Xrotation Yrotation
				End Site
				{
					OFFSET 0.1237 -0.0542 0.0051
				}
			}
		}
	}
	JOINT LeftHip
	{
		OFFSET 0.0316 -0.0424 -0.0458
		CHANNELS 3 Zrotation Xrotation Yrotation
		JOINT LeftKnee
		{
			OFFSET 0.00 -0.2438 0.00
			CHANNELS 1 Zrotation
			JOINT LeftAnkle
			{
				OFFSET 0.00 -0.2449 0.00
				CHANNELS 3 Zrotation Xrotation Yrotation
				End Site
				{
					OFFSET 0.1237 -0.0542 -0.0051
				}
			}
		}
	}
}
MOTION
Frames: 34
Frame Time: 0.02
-0 0.57926 -0 180.86916 0 3.61588 8.57926 -1.63095 -0.5701 -33.48731 2.57869 3.14318 26.01657 -13.99441 -10.42083 9.67718 82.91784 0.66798 0.41965 27.24608 4.84307 21.94157 6.39428 -75.01503 -4.28176 -0.99857 2.90662 3.9798 13.45885 -21.66213 11.57883 -10.39684 -15.03538 3.19051 -3.45323 -17.05415 -18.58696 8.62806 7.86521 10.42605
-4e-05 0.57926 1e-05 180.95063 0 3.62908 8.57329 -1.6769 -0.53564 -33.82494 2.60966 3.15434 26.27069 -13.98085 -10.81455 9.64689 82.79903 0.71876 0.85901 27.77363 5.03418 20.71938 6.57374 -75.05235 -4.20112 -0.99912 2.93007 3.97068 13.39837 -21.72523 11.59365 -10.41083 -15.05946 3.20239 -3.46805 -17.09293 -18.58766 8.62522 7.83345 10.3968
-8e-05 0.57926 3e-05 181.03192 0 3.642 8.56725 -1.72248 -0.50124 -34.15968 2.6402 3.16518 26.52225 -13.96712 -11.20659 9.61722 82.68118 0.76878 1.29458 28.2969 5.22775 19.48862 6.75716 -75.09218 -4.12377 -0.9974 2.95309 3.96163 13.33776 -21.78744 11.60821 -10.42454 -15.08323 3.21436 -3.48277 -17.13203 -18.58873 8.62242 7.80201 10.36797
-0.00012 0.57926 5e-05 181.11512 0 3.65432 8.56014 -1.76731 -0.46835 -34.48514 2.67031 3.17468 26.76599 -13.95331 -11.59174 9.58789 82.56601 0.81598 1.71913 28.81122 5.42599 18.23814 6.9426 -75.13325 -4.05147 -0.99072 2.97551 3.95251 13.27477 -21.84791 11.62264 -10.43787 -15.1064 3.22762 -3.4977 -17.17397 -18.59146 8.61975 7.77128 10.33999
-0.00017 0.57926 5e-05 181.1904 0 3.67033 8.55776 -1.81649 -0.42946 -34.85852 2.70387 3.19102 27.05108 -13.94078 -12.00844 9.5544 82.43665 0.87782 2.20196 29.37678 5.59086 17.12375 7.0981 -75.15686 -3.94359 -1.01519 3.00215 3.94344 13.22285 -21.91909 11.63875 -10.45397 -15.13323 3.23503 -3.51208 -17.20232 -18.58562 8.61636 7.7365 10.30683
-0.0002 0.57926 9e-05 181.28087 0 3.67817 8.54603 -1.85614 -0.40193 -35.131 2.72931 3.19309 27.24849 -13.92497 -12.36137 9.53137 82.33742 0.9088 2.56109 29.83076 5.83206 15.70122 7.3299 -75.22476 -3.91706 -0.97045 3.01913 3.93451 13.14859 -21.96651 11.65062 -10.46369 -15.15196 3.25415 -3.52723 -17.25841 -18.59775 8.61454 7.7105 10.28513
-0.00015 0.57926 0.00023 181.42932 0 3.6656 8.50198 -1.87161 -0.41685 -35.11547 2.73885 3.15331 27.19973 -13.90434 -12.51575 9.52672 82.32181 0.85025 2.5739 29.9961 6.25231 13.54186 7.68629 -75.35705 -4.07248 -0.75532 3.01476 3.92395 13.00029 -21.95576 11.65591 -10.45936 -15.15061 3.31267 -3.54793 -17.40319 -18.6631 8.61696 7.70761 10.29181
-8e-05 0.57927 0.0004 181.58988 0 3.64422 8.44976 -1.87692 -0.44073 -35.00004 2.73888 3.09998 27.06305 -13.87964 -12.61171 9.53631 82.33662 0.76085 2.4616 30.0427 6.75811 11.05188 8.14256 -75.54339 -4.31816 -0.46709 2.99964 3.91401 12.83187 -21.91957 11.65584 -10.44782 -15.14044 3.38168 -3.56865 -17.57363 -18.74598 8.62105 7.71387 10.31079
-4e-05 0.57928 0.00056 181.73519 0 3.62568 8.40532 -1.88567 -0.45392 -34.93601 2.73923 3.05383 26.96924 -13.85396 -12.74705 9.54404 82.33715 0.68884 2.41105 30.13453 7.24322 8.63114 8.60123 -75.74476 -4.55039 -0.19745 2.98595 3.90494 12.68011 -21.8902 11.65507 -10.43733 -15.1331 3.44149 -3.58737 -17.725 -18.81859 8.62438 7.71659 10.32608
7e-05 0.57927 0.00072 181.9234 0 3.61269 8.34324 -1.89997 -0.49702 -34.84551 2.75704 3.00154 26.86345 -13.84006 -12.82134 9.52519 82.33928 0.60439 2.34441 30.27417 7.64261 6.53671 8.83098 -75.78505 -4.66576 0.01384 2.98683 3.89051 12.49536 -21.88107 11.66811 -10.4366 -15.13162 3.52038 -3.61514 -17.90878 -18.901 8.62751 7.7164 10.33278
4e-05 0.5793 0.00088 182.02291 0 3.58522 8.31654 -1.89959 -0.47746 -34.78786 2.7355 2.9611 26.76134 -13.80086 -13.01752 9.57403 82.34571 0.53628 2.27584 30.27224 8.25204 3.70404 9.59532 -76.16611 -5.04659 0.35971 2.95482 3.88802 12.37615 -21.82345 11.65037 -10.41339 -15.11472 3.56156 -3.62326 -18.0297 -18.96708 8.63174 7.72484 10.36103
-0.00042 0.57944 0.00101 181.89315 0 3.52726 8.38362 -1.86705 -0.30493 -34.8309 2.6138 2.93604 26.69123 -13.68983 -13.48775 9.73929 82.35726 0.53696 2.2823 30.02575 9.32298 -1.25649 11.51201 -77.54298 -6.1342 1.0969 2.83523 3.91283 12.42967 -21.64147 11.5554 -10.33342 -15.06702 3.50017 -3.58417 -17.98272 -18.98425 8.6359 7.75123 10.43967
-0.00104 0.57962 0.00114 181.66989 0 3.45372 8.48698 -1.8189 -0.06555 -34.91171 2.45169 2.92649 26.62568 -13.55321 -14.0946 9.99128 82.37482 0.55003 2.28227 29.61849 10.61897 -6.91539 14.01323 -79.25039 -7.48727 1.96038 2.68333 3.95059 12.55262 -21.41147 11.42841 -10.23035 -15.00224 3.39986 -3.52414 -17.86904 -18.98421 8.64155 7.78656 10.5408
-0.00159 0.57978 0.00126 181.47771 0 3.38243 8.57847 -1.77417 0.15865 -34.98656 2.304 2.92433 26.56048 -13.43128 -14.69234 10.23914 82.38555 0.54951 2.25209 29.2086 11.87794 -12.14477 16.45069 -80.75911 -8.72072 2.74093 2.54514 3.98612 12.65201 -21.20065 11.31187 -10.13562 -14.93905 3.31439 -3.46887 -17.77843 -18.99183 8.64839 7.82028 10.63557
-0.00212 0.57993 0.00139 181.33561 0 3.33098 8.65301 -1.74499 0.32107 -35.01654 2.17257 2.86378 26.49061 -13.29967 -15.07429 10.31151 82.40293 0.59012 2.35562 29.11625 12.87097 -17.86495 18.06364 -82.46547 -9.9504 3.63028 2.40848 4.00651 12.71564 -20.998 11.2125 -10.05004 -14.9019 3.24053 -3.43306 -17.72058 -19.00109 8.64767 7.84438 10.71417
-0.00272 0.58012 0.00152 181.065 0 3.23491 8.76802 -1.67938 0.62479 -35.14283 1.9979 2.92486 26.42187 -13.17797 -15.92649 10.80369 82.42221 0.53761 2.1828 28.32321 14.46199 -22.71711 21.50093 -83.84912 -11.25307 4.324 2.26384 4.06116 12.87219 -20.76987 11.06977 -9.93964 -14.80621 3.13408 -3.3525 -17.57673 -19.00216 8.66268 7.88999 10.83201
-0.00358 0.58036 0.00157 180.47594 0 3.01753 9.01525 -1.52168 1.3311 -35.58622 1.71305 3.35234 26.44639 -13.12747 -18.14828 12.14573 82.31659 0.31605 1.23265 25.65709 17.71732 -25.06469 30.09136 -84.16466 -12.66652 4.42929 2.08243 4.20972 13.25436 -20.46168 10.81624 -9.76941 -14.55495 2.93893 -3.14761 -17.22435 -18.98859 8.72461 7.99768 11.049
-0.00448 0.58062 0.00162 179.75685 0 2.75662 9.29561 -1.32751 2.17169 -36.11192 1.38641 3.89607 26.45409 -13.08181 -20.81757 13.96182 82.2348 -0.01737 0.00921 22.2878 21.55158 -26.50324 40.44587 -84.16161 -14.15024 4.33602 1.89896 4.39152 13.73062 -20.13406 10.52033 -9.57429 -14.24432 2.71383 -2.89998 -16.78479 -18.96656 8.80208 8.12609 11.3051
-0.00529 0.58088 0.00171 179.09006 0 2.51637 9.54275 -1.14638 2.93236 -36.56402 1.07923 4.3632 26.41156 -13.00809 -23.21606 15.7487 82.22855 -0.35807 -1.07936 19.22622 25.07823 -28.31223 49.8265 -84.36726 -15.6162 4.34489 1.73058 4.55684 14.17274 -19.82899 10.2427 -9.38885 -13.96057 2.50779 -2.67516 -16.37728 -18.94582 8.86931 8.24132 11.54592
-0.00643 0.58112 0.00165 178.4542 0 2.27003 9.87153 -0.97761 3.77636 -37.18053 0.7681 4.92826 26.61835 -13.03865 -25.91144 16.749 81.86507 -0.44947 -2.21741 16.20874 28.80883 -30.31746 59.96673 -84.31494 -17.02501 4.30871 1.49893 4.72966 14.57983 -19.46255 9.96672 -9.21026 -13.6796 2.27735 -2.4333 -16.00122 -18.93529 8.94803 8.37131 11.77791
-0.00688 0.5814 0.00189 177.71735 0 2.02852 10.03305 -0.77717 4.4763 -37.46067 0.45651 5.32047 26.29571 -12.85853 -28.08357 19.50335 82.24221 -1.09126 -3.31203 12.93483 32.23898 -31.69963 68.9208 -84.7196 -18.57436 4.31662 1.40198 4.89305 15.08264 -19.22214 9.67937 -9.01084 -13.37525 2.09118 -2.21955 -15.53756 -18.90171 9.00896 8.47717 12.03615
-0.00553 0.5818 0.00288 176.79206 0 1.79159 9.76401 -0.47715 4.75888 -36.90387 0.14957 5.17368 24.57487 -12.05534 -28.77631 26.94195 84.74146 -3.19333 -4.26498 9.12588 34.78174 -31.4867 74.29297 -86.46444 -20.42208 4.50212 1.65215 5.03557 15.81567 -19.31558 9.35703 -8.76845 -13.05377 2.03432 -2.07291 -14.87441 -18.8062 8.99569 8.49563 12.36644
-0.00347 0.58224 0.00417 175.75856 0 1.56469 9.3181 -0.15089 4.88956 -35.98548 -0.15426 4.85422 22.31625 -11.04974 -28.90946 36.13117 87.97325 -5.85476 -5.15706 5.08594 36.98394 -30.69231 78.38255 -88.67739 -22.42068 4.7368 2.04268 5.16506 16.64366 -19.53987 9.02786 -8.50476 -12.70535 2.02322 -1.96023 -14.12363 -18.68777 8.96777 8.49187 12.71967
-0.00167 0.58265 0.00535 174.73737 0 1.34606 8.92699 0.14995 5.08003 -35.15787 -0.45786 4.63658 20.25766 -10.16053 -29.25266 44.55442 90.8108 -8.27719 -6.04642 1.14917 39.28765 -30.22466 82.97641 -90.67546 -24.39681 4.94363 2.38597 5.29153 17.43495 -19.71741 8.71064 -8.24504 -12.34704 1.99163 -1.84564 -13.39803 -18.58034 8.96071 8.50868 13.05669
-0.00015 0.5831 0.0064 173.86964 0 1.07188 8.64452 0.51054 5.31204 -34.64005 -0.77445 4.32784 18.36288 -9.15961 -29.81029 52.89363 93.89361 -10.62609 -7.07051 -2.81356 41.84228 -29.46343 87.97081 -92.67596 -26.18225 5.16705 2.66001 5.45628 18.20174 -19.84226 8.35297 -8.00742 -12.07768 1.95796 -1.67173 -12.72654 -18.47078 8.89491 8.48247 13.42078
0.00212 0.58347 0.00781 172.65525 0 0.91618 8.09402 0.75058 5.42244 -33.39453 -1.05698 4.16204 16.02816 -8.35432 -29.76766 61.78687 96.6574 -13.27613 -7.79983 -6.7567 43.77866 -29.18548 91.79484 -94.78128 -28.3981 5.36991 3.11079 5.53856 19.04156 -20.10603 8.08047 -7.72044 -11.62045 1.93951 -1.6309 -11.92851 -18.35953 8.94692 8.53972 13.7318
0.00628 0.5836 0.01013 170.53814 0 1.08669 6.8412 0.66746 5.20864 -30.19117 -1.29549 4.46981 12.36551 -8.03998 -28.33099 72.03825 98.20058 -16.47216 -7.69546 -10.6784 44.14969 -30.40276 92.76225 -97.10946 -31.7768 5.50718 4.02259 5.38894 20.04891 -20.74016 8.02809 -7.2927 -10.62969 1.95581 -1.94172 -10.75463 -18.25657 9.33492 8.83768 13.9046
0.01117 0.58366 0.01282 168.07261 0 1.3758 5.32641 0.45934 4.88104 -26.27651 -1.49093 4.92024 8.32564 -7.9451 -26.28536 82.73396 99.42384 -19.97458 -7.30183 -14.55023 43.89712 -32.12686 92.57575 -99.51989 -35.57905 5.6226 5.10585 5.15769 21.12488 -21.5061 8.0648 -6.81939 -9.45811 1.98557 -2.38679 -9.467 -18.1518 9.84033 9.21924 14.02062
0.01571 0.58375 0.01537 165.7472 0 1.61016 3.93396 0.29714 4.62252 -22.7086 -1.67293 5.28046 4.61751 -7.81808 -24.43108 93.05877 100.90298 -23.4395 -7.06165 -18.38533 43.88782 -33.61212 92.86824 -101.86242 -39.18202 5.7467 6.1061 4.96885 22.18007 -22.19959 8.07218 -6.37164 -8.37977 2.00638 -2.77576 -8.26177 -18.04249 10.28754 9.55943 14.15297
0.02034 0.58384 0.01781 163.48953 0 1.84938 2.51819 0.18011 4.28848 -19.02031 -1.99212 5.74081 0.20891 -7.41023 -22.91101 104.16866 101.95524 -26.51327 -6.72576 -22.48777 44.03351 -35.11508 93.30854 -104.3487 -42.82681 5.87702 7.13362 4.75838 23.20758 -22.95094 8.033 -5.89683 -7.24128 2.0395 -3.14578 -6.91889 -17.95318 10.75568 9.91371 14.32515
0.02494 0.58391 0.02055 161.01613 0 2.10531 1.09522 -0.05889 4.08289 -15.42935 -2.018 6.03004 -2.81714 -7.62752 -20.56634 113.71302 103.79353 -30.44364 -6.52242 -26.0083 43.71633 -36.70592 93.18381 -106.55062 -46.4733 5.98939 8.14209 4.5722 24.29163 -23.61097 8.11105 -5.47512 -6.20108 2.05111 -3.58594 -5.84301 -17.82436 11.20709 10.25807 14.40185
0.02935 0.5839 0.02405 157.9752 0 2.38899 -0.31768 -0.62294 4.29415 -12.19136 -1.22233 5.80196 -1.98497 -9.64319 -16.01954 118.92513 108.02489 -36.86239 -6.7483 -28.0166 42.24314 -38.44865 91.7807 -107.92825 -50.10407 6.05127 9.06542 4.48577 25.65223 -23.98985 8.50006 -5.14748 -5.33966 1.98668 -4.19344 -5.47892 -17.56723 11.59351 10.56029 14.21767
0.03368 0.58386 0.02783 154.74016 0 2.6835 -1.72098 -1.30207 4.63388 -9.0954 -0.13759 5.40008 0.26175 -12.25769 -10.68123 122.51838 113.02534 -44.09148 -7.12074 -29.42345 40.33367 -40.25967 89.85544 -109.01578 -53.70565 6.09718 9.96132 4.42402 27.04081 -24.27136 9.00242 -4.88561 -4.60643 1.90224 -4.86556 -5.3968 -17.27406 11.95693 10.84838 13.94131
0.03799 0.58384 0.03147 151.63231 0 2.96583 -3.10609 -1.91628 4.89186 -5.99393 0.80088 5.08426 1.90035 -14.51687 -5.75575 126.77938 117.5784 -50.81863 -7.42946 -31.05149 38.6447 -42.01996 88.1754 -110.24912 -57.26525 6.1538 10.86272 4.34307 28.32664 -24.59422 9.44685 -4.63707 -3.9078 1.83575 -5.50362 -5.22238 -17.01051 12.32481 11.13973 13.71434
